<svg xmlns="http://www.w3.org/2000/svg" xmlns:xlink="http://www.w3.org/1999/xlink" version="1.1" width="85" height="70" style="enable-background:new 0 0 84.719 84.719;" xml:space="preserve"><rect id="backgroundrect" width="100%" height="100%" x="0" y="0" fill="none" stroke="none"/>
















<g class="currentLayer" style=""><title>Layer 1</title><g id="svg_1" class="" fill="#1aeb1a" fill-opacity="1">
	<path d="M82.333,24.636v-4.172h-4.425v-5.26l-28.336,5.26H17.045v4.172h-2.389v7.442c0.693-0.078,1.396-0.129,2.111-0.129   c0.091,0,0.187,0.014,0.278,0.014c0.393,0.007,0.78,0.033,1.168,0.059c0.393,0.03,0.785,0.072,1.168,0.13v-7.516v-1.836H37.58   v1.836v13.097l3.749-2.628l3.754,2.628V24.636v-1.836h3.44v1.836v40.792H28.762c-0.507,0.42-1.038,0.808-1.593,1.168   c-0.657,0.438-1.346,0.82-2.061,1.168c-1.744,0.864-3.648,1.464-5.652,1.751h65.263V24.636H82.333L82.333,24.636z M50.861,22.799   v-0.196l5.23-0.972l6.291-1.168l13.189-2.45v2.45v1.168v1.168v1.836v35.96l-24.713,4.59v-40.55v-1.836H50.861z M79.997,24.636   v40.792H62.383l15.525-2.879V24.638v-1.836h2.089V24.636z M54.208,54.627l-0.611-2.254l18.472-5.021l0.616,2.253L54.208,54.627z    M53.993,60.927l-0.611-2.256l18.477-5.021l0.611,2.254L53.993,60.927z M54.465,30.631l-0.632-2.249l13.432-3.747l4.585-1.278   l0.355,1.278l0.273,0.972L54.465,30.631z M54.465,36.593l-0.632-2.25l18.017-5.022l0.632,2.249L54.465,36.593z M54.427,42.551   l-0.625-2.25l18.048-5.023l0.627,2.25L54.427,42.551z M54.427,48.514l-0.625-2.25l18.048-5.021l0.627,2.25L54.427,48.514z    M24.996,65.428c5.088-2.879,8.528-8.331,8.528-14.588c0-8.352-6.145-15.278-14.147-16.54c-0.383-0.061-0.771-0.119-1.168-0.151   c-0.383-0.032-0.776-0.049-1.168-0.056c-0.091,0-0.187-0.014-0.278-0.014c-0.72,0-1.416,0.056-2.109,0.147   C6.405,35.268,0,42.315,0,50.84c0,8.526,6.405,15.57,14.654,16.615c0.693,0.089,1.396,0.144,2.109,0.144   c0.091,0,0.187-0.014,0.278-0.014c1.896-0.031,3.7-0.385,5.393-0.994C23.329,66.272,24.185,65.889,24.996,65.428z M16.767,64.105   c-0.722,0-1.422-0.073-2.111-0.188c-6.31-1.02-11.149-6.482-11.149-13.077s4.839-12.06,11.149-13.077   c0.689-0.113,1.391-0.185,2.111-0.185c0.091,0,0.187,0.011,0.278,0.014c0.393,0.009,0.785,0.028,1.168,0.067   c0.397,0.044,0.785,0.104,1.168,0.178c6.063,1.217,10.644,6.582,10.644,12.999c0,6.414-4.581,11.779-10.644,12.995   c-0.383,0.077-0.771,0.139-1.168,0.183c-0.383,0.041-0.775,0.055-1.168,0.063C16.954,64.089,16.858,64.105,16.767,64.105z    M18.213,54.6c-0.365,0.141-0.757,0.221-1.168,0.248c-0.091,0.005-0.183,0.027-0.278,0.027c-0.78,0-1.498-0.232-2.111-0.611   c-1.154-0.712-1.925-1.976-1.925-3.428c0-1.456,0.771-2.72,1.925-3.432c0.616-0.381,1.331-0.613,2.111-0.613   c0.096,0,0.187,0.025,0.278,0.029c0.411,0.03,0.803,0.11,1.168,0.249c0.435,0.164,0.822,0.411,1.168,0.707   c0.867,0.744,1.427,1.829,1.427,3.06c0,1.225-0.56,2.312-1.427,3.054C19.036,54.187,18.648,54.433,18.213,54.6z" id="svg_2" fill="#1aeb1a" fill-opacity="1"/>
</g><g id="svg_3" class="">
</g><g id="svg_4" class="">
</g><g id="svg_5" class="">
</g><g id="svg_6" class="">
</g><g id="svg_7" class="">
</g><g id="svg_8" class="">
</g><g id="svg_9" class="">
</g><g id="svg_10" class="">
</g><g id="svg_11" class="">
</g><g id="svg_12" class="">
</g><g id="svg_13" class="">
</g><g id="svg_14" class="">
</g><g id="svg_15" class="">
</g><g id="svg_16" class="">
</g><g id="svg_17" class="">
</g></g></svg>